<!DOCTYPE svg PUBLIC "-//W3C//DTD SVG 1.1//EN" "http://www.w3.org/Graphics/SVG/1.1/DTD/svg11.dtd">
<!-- Uploaded to: SVG Repo, www.svgrepo.com, Transformed by: SVG Repo Mixer Tools -->
<svg height="64px" width="64px" version="1.1" id="Layer_1" xmlns="http://www.w3.org/2000/svg" xmlns:xlink="http://www.w3.org/1999/xlink" viewBox="0 0 512 512" xml:space="preserve" fill="#000000">
<g id="SVGRepo_bgCarrier" stroke-width="0"/>
<g id="SVGRepo_tracerCarrier" stroke-linecap="round" stroke-linejoin="round"/>
<g id="SVGRepo_iconCarrier"> <polygon points="138.424,156 99.856,41.872 0,41.872 0,11.368 121.752,11.368 167.312,146.232 "/> <polygon style="fill:#FFD67F;" points="64.448,130.384 487.944,130.384 407.224,356.872 134.968,356.872 "/> <circle cx="359.704" cy="441.904" r="58.728"/> <circle cx="182.576" cy="441.904" r="58.728"/> <path style="fill:#FF583E;" d="M470.44,319.832H219.552c-22.856,0-41.56-18.704-41.56-41.56v-68.576 c0-22.856,18.704-41.56,41.56-41.56H470.44c22.856,0,41.56,18.704,41.56,41.56v68.576C512,301.128,493.296,319.832,470.44,319.832z"/> <g> <path style="fill:#FFFFFF;" d="M227.224,261.464c4.344,2.224,11.04,4.456,17.936,4.456c7.432,0,11.368-3.088,11.368-7.76 c0-4.456-3.4-7-12-10.088c-11.888-4.144-19.64-10.72-19.64-21.128c0-12.216,10.192-21.56,27.072-21.56 c8.08,0,14.024,1.704,18.264,3.608l-3.608,13.056c-2.872-1.376-7.968-3.392-14.976-3.392c-7.008,0-10.4,3.192-10.4,6.896 c0,4.576,4.04,6.584,13.272,10.088c12.64,4.672,18.584,11.256,18.584,21.344c0,12-9.232,22.2-28.888,22.2 c-8.184,0-16.248-2.136-20.288-4.36L227.224,261.464z"/> <path style="fill:#FFFFFF;" d="M283.072,202.744h16.144v29.624h0.208c1.704-2.224,3.824-3.928,6.376-5.312 c2.336-1.272,5.408-2.016,8.384-2.016c10.304,0,18.168,7.112,18.168,22.728v30.368h-16.144v-28.568 c0-6.792-2.336-11.456-8.384-11.456c-4.256,0-6.912,2.76-8.08,5.624c-0.416,1.056-0.52,2.44-0.52,3.608v30.792H283.08v-75.392 H283.072z"/> <path style="fill:#FFFFFF;" d="M396.576,251.584c0,19-13.488,27.72-27.4,27.72c-15.192,0-26.864-9.984-26.864-26.76 c0-16.768,11.04-27.504,27.72-27.504C385.96,225.04,396.576,235.976,396.576,251.584z M358.984,252.12 c0,8.92,3.72,15.608,10.616,15.608c6.264,0,10.304-6.264,10.304-15.608c0-7.752-2.976-15.608-10.304-15.608 C361.848,236.504,358.984,244.472,358.984,252.12z"/> <path style="fill:#FFFFFF;" d="M406.544,243.624c0-6.792-0.216-12.64-0.432-17.416h14.024l0.736,7.224h0.216 c3.824-5.528,9.768-8.392,17.312-8.392c11.36,0,21.56,9.88,21.56,26.448c0,18.904-12,27.816-23.576,27.816 c-6.264,0-11.152-2.552-13.488-5.944h-0.208v25.8h-16.144L406.544,243.624L406.544,243.624z M422.688,255.84 c0,1.272,0.104,2.44,0.32,3.392c1.056,4.36,4.776,7.648,9.448,7.648c7,0,11.144-5.84,11.144-14.656 c0-8.28-3.712-14.544-10.936-14.544c-4.56,0-8.6,3.4-9.656,8.184c-0.216,0.848-0.32,1.904-0.32,2.856V255.84z"/> </g> </g>
</svg>