<!DOCTYPE svg PUBLIC "-//W3C//DTD SVG 1.1//EN" "http://www.w3.org/Graphics/SVG/1.1/DTD/svg11.dtd">
<!-- Uploaded to: SVG Repo, www.svgrepo.com, Transformed by: SVG Repo Mixer Tools -->
<svg height="64px" width="64px" version="1.1" id="Layer_1" xmlns="http://www.w3.org/2000/svg" xmlns:xlink="http://www.w3.org/1999/xlink" viewBox="0 0 512 512" xml:space="preserve" fill="#000000">
<g id="SVGRepo_bgCarrier" stroke-width="0"/>
<g id="SVGRepo_tracerCarrier" stroke-linecap="round" stroke-linejoin="round"/>
<g id="SVGRepo_iconCarrier"> <g transform="translate(0 1)"> <path style="fill:#FFA800;" d="M129.718,60.44L129.718,60.44c-63.147,62.293-69.973,159.573-20.48,228.693l73.387,103.253 l73.387,110.08l75.947-113.493l68.267-96.427c52.053-69.973,46.08-169.813-17.92-232.96l0,0 C312.331-10.387,199.691-10.387,129.718,60.44"/> <path style="fill:#FFE100;" d="M122.891,64.707L122.891,64.707c-58.88,58.88-64.853,150.187-18.773,215.893l69.12,97.28 l69.12,103.253l71.68-106.667l64-90.453c48.64-65.707,43.52-159.573-16.213-219.307l0,0 C295.265-1.853,188.598-1.853,122.891,64.707"/> <path style="fill:#FFFFFF;" d="M129.718,60.44C192.865-2.707,291.851-8.68,361.825,42.52 c-65.707-42.667-153.6-34.987-210.773,22.187c-59.733,59.733-64.853,152.747-16.213,219.307l64,90.453l71.68,106.667l3.413-5.12 l0.853,0.853l-18.773,25.6l-75.947-113.493l-68.267-96.427C59.745,222.573,65.718,123.587,129.718,60.44"/> <path style="fill:#3DB9F9;" d="M392.545,186.733c0-75.093-61.44-136.533-136.533-136.533s-136.533,61.44-136.533,136.533 s61.44,136.533,136.533,136.533S392.545,261.827,392.545,186.733"/> <path style="fill:#63D3FD;" d="M366.945,186.733c0-75.093-52.907-136.533-128-136.533s-119.467,61.44-119.467,136.533 s44.373,136.533,119.467,136.533S366.945,261.827,366.945,186.733"/> <g> <polygon style="fill:#FFE100;" points="256.011,92.867 162.145,186.733 187.745,212.333 256.011,144.067 256.011,144.067 256.011,144.067 324.278,212.333 349.878,186.733 "/> <polygon style="fill:#FFE100;" points="256.011,144.067 204.811,195.267 204.811,255 307.211,255 307.211,195.267 "/> </g> <path d="M256.011,331.8c-80.213,0-145.067-64.853-145.067-145.067S175.798,41.667,256.011,41.667s145.067,64.853,145.067,145.067 S336.225,331.8,256.011,331.8z M256.011,58.733c-70.827,0-128,57.173-128,128s57.173,128,128,128s128-57.173,128-128 S326.838,58.733,256.011,58.733z"/> <path d="M324.278,220.867L324.278,220.867c-2.56,0-4.267-0.853-5.973-2.56l-62.293-62.293l-62.293,62.293 c-1.707,1.707-3.413,2.56-5.973,2.56l0,0c-2.56,0-4.267-0.853-5.973-2.56l-25.6-25.6c-3.413-3.413-3.413-8.533,0-11.947 l93.867-93.867c1.707-1.707,3.413-2.56,5.973-2.56l0,0c2.56,0,4.267,0.853,5.973,2.56l93.867,93.867 c1.707,1.707,2.56,3.413,2.56,5.973c0,2.56-0.853,4.267-2.56,5.973l-25.6,25.6C328.545,220.013,326.838,220.867,324.278,220.867z M257.718,135.533c1.707,0,3.413,0.853,4.267,2.56l62.293,62.293l13.653-13.653l-81.92-81.92l-81.92,81.92l13.653,13.653 l62.293-62.293c1.707-1.707,3.413-2.56,5.973-2.56l0,0C256.865,135.533,257.718,135.533,257.718,135.533z"/> <path d="M307.211,263.533h-102.4c-5.12,0-8.533-3.413-8.533-8.533v-59.733c0-2.56,0.853-4.267,2.56-5.973l51.2-51.2 c1.707-1.707,3.413-2.56,5.973-2.56l0,0c2.56,0,4.267,0.853,5.973,2.56l51.2,51.2c1.707,1.707,2.56,3.413,2.56,5.973V255 C315.745,260.12,312.331,263.533,307.211,263.533z M213.345,246.467h85.333V198.68l-42.667-42.667l-42.667,42.667V246.467z"/> <path d="M256.011,511c-2.56,0-5.12-1.707-6.827-3.413l-73.387-110.08l-73.387-103.253c-52.907-74.24-43.52-175.787,20.48-240.64 l0,0C158.731,18.627,205.665-1,256.011-1s97.28,19.627,133.12,54.613c64.853,64.853,73.387,169.813,18.773,244.053l-68.267,96.427 l-75.947,112.64C261.131,509.293,258.571,511,256.011,511z M256.011,16.067c-45.227,0-88.747,17.92-120.32,50.347l0,0 C76.811,124.44,68.278,216.6,116.065,284.867l73.387,103.253l66.56,98.987l69.12-102.4l68.267-96.427 c49.493-67.413,42.667-162.987-17.067-221.867C344.758,33.987,301.238,16.067,256.011,16.067z M129.718,60.44L129.718,60.44 L129.718,60.44z"/> </g> </g>
</svg>